<?xml version="1.0" encoding="UTF-8" standalone="no"?>
<!-- Created with Inkscape (http://www.inkscape.org/) -->
<svg id="svg2" xmlns:rdf="http://www.w3.org/1999/02/22-rdf-syntax-ns#" xmlns="http://www.w3.org/2000/svg" height="182.07" width="300.62" version="1.1" xmlns:cc="http://creativecommons.org/ns#" xmlns:xlink="http://www.w3.org/1999/xlink" xmlns:dc="http://purl.org/dc/elements/1.1/">
 <defs id="defs4">
  <linearGradient id="linearGradient4169" y2="113.17" gradientUnits="userSpaceOnUse" x2="367.19" y1="113.17" x1="312.65">
   <stop id="stop3903" stop-color="#1ac7e5" offset="0"/>
   <stop id="stop3905" stop-color="#84e0f1" offset="1"/>
  </linearGradient>
 </defs>
 <metadata id="metadata7">
  <rdf:RDF>
   <cc:Work rdf:about="">
    <dc:format>image/svg+xml</dc:format>
    <dc:type rdf:resource="http://purl.org/dc/dcmitype/StillImage"/>
    <dc:title/>
   </cc:Work>
  </rdf:RDF>
 </metadata>
 <g id="layer1" transform="translate(-159.39816,-60.641461)">
  <g id="g4134">
   <path id="path4086" stroke-linejoin="miter" d="m318.2,207.62,7.5762-63.387" stroke="#000" stroke-linecap="butt" stroke-width="1px" fill="none"/>
   <path id="path3911" d="m363.04,164.33-6.5226-0.16278,3.4022-5.5673z" transform="translate(-34.245658,-15.60796)" stroke="#000" fill="#21c9e6"/>
   <path id="path3897" d="m366.69,113.17c0,20.503-11.985,37.123-26.769,37.123s-26.769-16.621-26.769-37.123c0-20.503,11.985-37.123,26.769-37.123s26.769,16.621,26.769,37.123z" transform="matrix(1.0525353,0,0,1.0047233,-30.4786,-6.4105278)" stroke="#000" stroke-miterlimit="4" stroke-dasharray="none" stroke-width="1" fill="url(#linearGradient4169)"/>
   <path id="path3909" d="m368.39,102.27c0,4.4873-2.1586,8.125-4.8214,8.125s-4.8214-3.6377-4.8214-8.125,2.1586-8.125,4.8214-8.125,4.8214,3.6377,4.8214,8.125z" transform="matrix(1.0662067,-0.21623157,0.21623157,1.0662067,-69.114417,59.450802)" fill="#FFF"/>
   <path id="path3970-3-1-6-8" d="m444.93,241.23c-1.972-0.0562-3.5371-2.2732-3.4957-4.9519,0.0389-2.5212,1.4935-4.5815,3.3463-4.7399" transform="matrix(0.85280689,0.23251951,-0.24350196,1.0081848,-4.3144027,-129.28023)" stroke="#000" stroke-miterlimit="4" stroke-dasharray="none" stroke-width="1" fill="#923f1c"/>
  </g>
 </g>
</svg>
