<?xml version="1.0" encoding="UTF-8" standalone="no"?>
<!-- Created with Inkscape (http://www.inkscape.org/) -->
<svg id="svg2" xmlns:rdf="http://www.w3.org/1999/02/22-rdf-syntax-ns#" xmlns="http://www.w3.org/2000/svg" height="182.07" width="300.62" version="1.1" xmlns:cc="http://creativecommons.org/ns#" xmlns:xlink="http://www.w3.org/1999/xlink" xmlns:dc="http://purl.org/dc/elements/1.1/">
 <defs id="defs4">
  <linearGradient id="linearGradient4165" y2="151.05" gradientUnits="userSpaceOnUse" x2="480.83" y1="151.05" x1="422.75">
   <stop id="stop3947" stop-color="#2cdb46" offset="0"/>
   <stop id="stop3949" stop-color="#8ceb9a" offset="1"/>
  </linearGradient>
 </defs>
 <metadata id="metadata7">
  <rdf:RDF>
   <cc:Work rdf:about="">
    <dc:format>image/svg+xml</dc:format>
    <dc:type rdf:resource="http://purl.org/dc/dcmitype/StillImage"/>
    <dc:title/>
   </cc:Work>
  </rdf:RDF>
 </metadata>
 <g id="layer1" transform="translate(-159.39816,-60.641461)">
  <g id="g4148">
   <path id="path4082" stroke-linejoin="miter" d="m405.09,223.34,4.5276-38.703" stroke="#000" stroke-linecap="butt" stroke-width="1px" fill="none"/>
   <path id="path3955" d="m356.08,191.46-6.8499-3.1163,6.1237-4.3741z" transform="translate(55.55839,-1.5152288)" stroke="#000" fill="#52e168"/>
   <path id="path3943" d="m480.33,151.05c0,22.316-12.776,40.406-28.537,40.406-15.76,0-28.537-18.09-28.537-40.406s12.776-40.406,28.537-40.406c15.76,0,28.537,18.09,28.537,40.406z" transform="matrix(1.1074826,0.23632402,-0.23971515,1.0918156,-37.746889,-128.57343)" stroke="#000" stroke-miterlimit="4" stroke-dasharray="none" stroke-width="1" fill="url(#linearGradient4165)"/>
   <path id="path3953" d="m441.69,128.96c0,4.6724-1.8656,8.46-4.1669,8.46s-4.1669-3.7877-4.1669-8.46,1.8656-8.46,4.1669-8.46,4.1669,3.7877,4.1669,8.46z" transform="matrix(1.1254976,-0.23246337,0.23246337,1.1254976,-75.677453,82.493719)" fill="#FFF"/>
   <path id="path3970-3-1-6-8-8-2" d="m444.93,241.23c-1.972-0.0562-3.5371-2.2732-3.4957-4.9519,0.0389-2.5212,1.4935-4.5815,3.3463-4.7399" transform="matrix(0.85280689,0.24798427,-0.24350196,1.0752387,82.414217,-136.23036)" stroke="#000" stroke-miterlimit="4" stroke-dasharray="none" stroke-width="1" fill="#923f1c"/>
  </g>
 </g>
</svg>
