<?xml version="1.0" encoding="UTF-8" standalone="no"?>
<!-- Created with Inkscape (http://www.inkscape.org/) -->

<svg
   xmlns:dc="http://purl.org/dc/elements/1.1/"
   xmlns:cc="http://creativecommons.org/ns#"
   xmlns:rdf="http://www.w3.org/1999/02/22-rdf-syntax-ns#"
   xmlns:svg="http://www.w3.org/2000/svg"
   xmlns="http://www.w3.org/2000/svg"
   xmlns:sodipodi="http://sodipodi.sourceforge.net/DTD/sodipodi-0.dtd"
   xmlns:inkscape="http://www.inkscape.org/namespaces/inkscape"
   id="svg2"
   height="182.07"
   width="300.62"
   version="1.1"
   inkscape:version="0.48.5 r10040"
   sodipodi:docname="link.svg">
  <sodipodi:namedview
     pagecolor="#ffffff"
     bordercolor="#666666"
     borderopacity="1"
     objecttolerance="10"
     gridtolerance="10"
     guidetolerance="10"
     inkscape:pageopacity="0"
     inkscape:pageshadow="2"
     inkscape:window-width="1366"
     inkscape:window-height="706"
     id="namedview2996"
     showgrid="false"
     inkscape:zoom="2.0156446"
     inkscape:cx="167.26178"
     inkscape:cy="31.01912"
     inkscape:window-x="1016"
     inkscape:window-y="-8"
     inkscape:window-maximized="1"
     inkscape:current-layer="svg2" />
  <defs
     id="defs4" />
  <metadata
     id="metadata7">
    <rdf:RDF>
      <cc:Work
         rdf:about="">
        <dc:format>image/svg+xml</dc:format>
        <dc:type
           rdf:resource="http://purl.org/dc/dcmitype/StillImage" />
        <dc:title />
      </cc:Work>
    </rdf:RDF>
  </metadata>
  <g
     id="g4157"
     transform="translate(-159.39816,-60.641461)">
    <path
       style="fill:#923f1c"
       inkscape:connector-curvature="0"
       d="m 306.98,215.63 -130.65,-24.765 -0.37215,-4.1202 c -0.18428,-2.0402 1.2474,-4.9971 1.5625,-5.005 0.31517,-0.008 60.85,11.006 134.12,24.293 l 137.12,24.865 -0.0191,5.5028 c -0.0106,2.6828 0.3112,4.9289 -0.46559,5.8644 -0.19643,-0.0466 -64.188,-12.193 -137.46,-26.01 z"
       id="path4098" />
    <path
       style="fill:none;stroke:#000000;stroke-width:1px;stroke-linecap:butt;stroke-linejoin:miter"
       inkscape:connector-curvature="0"
       d="M 448.19,242.16 176.77,191.15"
       id="path3968" />
    <path
       style="fill:#ff7f2a;stroke:#000000;stroke-width:1;stroke-miterlimit:4;stroke-dasharray:none"
       inkscape:connector-curvature="0"
       stroke-miterlimit="4"
       transform="matrix(1,0,0,1.1126697,3.5714286,-26.492004)"
       d="m 448.57,236.38 c 0,2.8107 -1.599,5.0893 -3.5714,5.0893 -1.9724,0 -3.5714,-2.2786 -3.5714,-5.0893 0,-2.8107 1.599,-5.0893 3.5714,-5.0893 1.9724,0 3.5714,2.2786 3.5714,5.0893 z"
       id="path3970" />
    <g
       style="stroke:#000000"
       id="g4094">
      <path
         style="fill:none;stroke-width:1px;stroke-linecap:butt;stroke-linejoin:miter"
         inkscape:connector-curvature="0"
         d="m 176.98,182.01 271.55,48.847"
         id="path3966" />
      <path
         style="fill:#923f1c;stroke-width:1;stroke-miterlimit:4;stroke-dasharray:none"
         inkscape:connector-curvature="0"
         stroke-miterlimit="4"
         transform="matrix(0.8341248,0,0,0.94581905,-194.19319,-37.002939)"
         d="m 444.93,241.25 c -1.972,-0.0564 -3.5371,-2.283 -3.4957,-4.9732 0.0414,-2.6902 1.6735,-4.8252 3.6455,-4.7688 0.0251,7.2e-4 0.0501,0.002 0.0752,0.003"
         id="path3970-3" />
    </g>
  </g>
</svg>
